{"title":"Michael Jackson - HIStory-Tour Munich 1997 HDTV-Rip 720p.mp4","uid":8449955,"size":7294979841,"categoryP":"video","categoryS":"hd___tv_shows","magnet":"?xt=urn:btih:561878e89fa6f998087d03c47447c9b0fe739a79&amp;dn=Michael+Jackson+-+HIStory-Tour+Munich+1997+HDTV-Rip+720p.mp4&amp;tr=udp%3A%2F%2Ftracker.openbittorrent.com%3A80&amp;tr=udp%3A%2F%2Fopen.demonii.com%3A1337&amp;tr=udp%3A%2F%2Ftracker.coppersurfer.tk%3A6969&amp;tr=udp%3A%2F%2Fexodus.desync.com%3A6969","seeders":0,"leechers":0,"uploader":"Dragonbird21","files":1,"time":1367973676,"description":"The HIStory World Tour was the third and final worldwide solo concert tour by American artist Michael Jackson, covering Europe, Africa, Asia, Oceania and North America. The tour included a total of 82 concerts and was attended by approximately 4.5 million fans, beating his previous Bad World Tour with 4.4 million. The tour was the largest concert tour ever by a solo artist in terms of attendance at the time grossing a total of over $165 million (excluding free concerts).[1] The HIStory World Tour spanned the globe with stops in 58 cities, 35 countries on 5 continents. Unlike the Bad and Dangerous World Tours, the History World Tour has never been released on DVD, despite many fans requesting it. However, there have been several full concerts leaked on the internet.\n\nTracklist:\n\n01. Intro \n02. Scream \n03. They don't care \n04. In the closet \n05. Wanna be startin'... \n06. Stranger in Moscow \n07. Smooth criminal \n08. You are not alone \n09. I want you back \n10. The love you save \n11. I'll be there \n12. Billie Jean intro \n13. Billie Jean \n14. Thriller \n15. Beat it \n16. Blood on the dance floore \n17. Dangerous \n18. Black or white \n19. Earth song \n20. We are the world \n21. Heal the world \n22. History \n\n\nFormat                                   : MPEG-4\nFormat profile                           : Base Media / Version 2\nCodec ID                                 : mp42\nFile size                                : 6.79 GiB\nDuration                                 : 2h 0mn\nOverall bit rate mode                    : Variable\nOverall bit rate                         : 8 072 Kbps\n\nVideo\nID                                       : 2\nFormat                                   : AVC\nFormat/Info                              : Advanced Video Codec\nFormat profile                           : &lt;a class=&quot;__cf_email__&quot; href=&quot;/cdn-cgi/l/email-protection&quot; data-cfemail=&quot;86ceefe1eec6cab3a8b6&quot;&gt;[email&amp;#160;protected]&lt;/a&gt;&lt;script data-cfhash='f9e31' type=&quot;text/javascript&quot;&gt;\n/* &lt;![CDATA[ */!function(){try{var t=&quot;currentScript&quot;in document?document.currentScript:function(){for(var t=document.getElementsByTagName(&quot;script&quot;),e=t.length;e--;)if(t[e].getAttribute(&quot;data-cfhash&quot;))return t[e]}();if(t&amp;&amp;t.previousSibling){var e,r,n,i,c=t.previousSibling,a=c.getAttribute(&quot;data-cfemail&quot;);if(a){for(e=&quot;&quot;,r=parseInt(a.substr(0,2),16),n=2;a.length-n;n+=2)i=parseInt(a.substr(n,2),16)^r,e+=String.fromCharCode(i);e=document.createTextNode(e),c.parentNode.replaceChild(e,c)}t.parentNode.removeChild(t);}}catch(u){}}()/* ]]&gt; */&lt;/script&gt;\nFormat settings, CABAC                   : Yes\nFormat settings, ReFrames                : 4 frames\nCodec ID                                 : avc1\nCodec ID/Info                            : Advanced Video Coding\nDuration                                 : 2h 0mn\nSource duration                          : 2h 0mn\nBit rate mode                            : Variable\nBit rate                                 : 7 803 Kbps\nWidth                                    : 960 pixels\nHeight                                   : 720 pixels\nDisplay aspect ratio                     : 4:3\nFrame rate mode                          : Variable\nFrame rate                               : 50.000 fps\nMinimum frame rate                       : 25.000 fps\nMaximum frame rate                       : 50.000 fps\nStandard                                 : NTSC\nColor space                              : YUV\nChroma subsampling                       : 4:2:0\nBit depth                                : 8 bits\nScan type                                : Progressive\nBits/(Pixel*Frame)                       : 0.226\nStream size                              : 6.57 GiB (97%)\nSource stream size                       : 6.57 GiB (97%)\nLanguage                                 : English\nmdhd_Duration                            : 7229860\nColor primaries                          : BT.709\nTransfer characteristics                 : BT.709\nMatrix coefficients                      : BT.709\n\nAudio\nID                                       : 1\nFormat                                   : AAC\nFormat/Info                              : Advanced Audio Codec\nFormat profile                           : LC\nCodec ID                                 : 40\nDuration                                 : 2h 0mn\nSource duration                          : 2h 0mn\nBit rate mode                            : Variable\nBit rate                                 : 265 Kbps\nMaximum bit rate                         : 382 Kbps\nChannel(s)                               : 2 channels\nChannel positions                        : Front: L R\nSampling rate                            : 48.0 KHz\nCompression mode                         : Lossy\nStream size                              : 226 MiB (3%)\nSource stream size                       : 227 MiB (3%)\nLanguage                                 : English\nmdhd_Duration                            : 7222849","torrent":{"xt":"urn:btih:561878e89fa6f998087d03c47447c9b0fe739a79","amp;dn":"Michael+Jackson+-+HIStory-Tour+Munich+1997+HDTV-Rip+720p.mp4","amp;tr":["udp%3A%2F%2Ftracker.openbittorrent.com%3A80","udp%3A%2F%2Fopen.demonii.com%3A1337","udp%3A%2F%2Ftracker.coppersurfer.tk%3A6969","udp%3A%2F%2Fexodus.desync.com%3A6969"],"infoHash":"561878e89fa6f998087d03c47447c9b0fe739a79","infoHashBuffer":{"type":"Buffer","data":[86,24,120,232,159,166,249,152,8,125,3,196,116,71,201,176,254,115,154,121]},"announce":[],"urlList":[]}}